<svg width="150" height="54" viewBox="0 0 150 54" fill="none" xmlns="http://www.w3.org/2000/svg">
<path fill-rule="evenodd" clip-rule="evenodd" d="M61.9911 25.3812C60.1218 24.3741 58.1574 23.7771 56.2409 22.9638C55.4563 22.6307 54.6807 22.2376 53.9164 21.8094C53.0128 21.303 52.3547 20.3945 52.363 18.8436C52.3712 17.1897 52.8593 15.828 53.8587 15.0769C54.9719 14.2398 56.178 14.3361 57.3833 14.5275C59.4158 14.8526 60.2962 16.7207 60.6848 18.8221C60.7439 19.1427 60.8105 19.4599 60.8689 19.7578H65.5509C65.8039 16.2585 64.4474 12.9755 62.5691 11.0848C61.4296 9.93725 60.1525 9.36404 58.7937 8.99247C56.4962 8.36374 54.2847 8.55293 52.1009 9.80811C49.4201 11.3499 47.1974 14.9999 47.4871 20.2472C47.6047 22.3769 48.1923 24.0887 49.1476 25.5579C50.3155 27.3524 51.8434 28.1873 53.3811 28.8975C54.9637 29.6305 56.6002 30.1017 58.1783 30.8551C59.0393 31.2652 59.9137 31.8486 60.6316 32.6586C61.9432 34.138 61.8983 36.7537 60.6451 38.3544C60.0477 39.118 59.3574 39.5734 58.5774 39.7444C57.4918 39.9812 56.4348 40.1364 55.3208 39.7886C53.4522 39.2041 51.9115 37.4731 51.6151 34.692C51.5724 34.2876 51.4968 33.5082 51.4968 33.5082C49.9142 33.5082 48.1527 33.4969 46.6501 33.4969C46.6501 33.4969 46.6838 34.4076 46.6966 34.6376C46.9593 39.246 48.646 42.3262 51.3313 44.2214C52.7732 45.2376 54.3304 45.6442 55.9332 45.7145C58.1783 45.813 60.3524 45.5332 62.4283 44.0458C65.756 41.6601 67.1806 36.1669 66.0749 31.247C65.4041 28.2609 63.8717 26.394 61.9911 25.3812Z" fill="white"/>
<path fill-rule="evenodd" clip-rule="evenodd" d="M39.7645 30.0013C39.483 33.6592 38.5046 36.8187 36.2864 38.8068C35.1043 39.8671 33.8047 39.9226 32.5043 39.8332C29.366 39.6134 27.4256 35.8184 26.8409 31.858C26.7466 31.2191 26.6171 30.5824 26.5826 29.9344C26.5377 29.0905 26.4973 28.2556 26.4973 27.406C26.4748 24.9568 26.7226 22.622 27.4106 20.4118C28.6548 16.4118 30.8303 14.6355 33.7021 14.8439C36.6075 15.0546 38.5412 18.3172 39.2726 21.6602C39.8745 24.4153 39.9794 27.2088 39.7645 30.0013ZM42.4558 16.1875C40.2444 11.2653 37.0949 9.02457 32.5769 9.01891C31.3155 8.8875 29.5442 9.5536 27.8658 10.7839C25.968 12.1761 24.5725 14.3931 23.5043 17.1028C22.254 20.277 21.8116 23.8035 21.7779 27.4105C21.754 29.9005 22.0077 32.3904 22.6044 34.7762C23.219 37.2344 24.0747 39.4435 25.3391 41.2413C26.8431 43.3801 28.6406 44.6636 30.6701 45.2708C33.7523 46.1929 36.6779 45.6174 39.3692 43.1388C41.8464 40.8561 43.319 37.3953 44.0609 33.2174C44.5887 30.2426 44.674 27.2247 44.385 24.157C44.1133 21.2773 43.5324 18.5846 42.4558 16.1875Z" fill="white"/>
<path fill-rule="evenodd" clip-rule="evenodd" d="M74.2146 38.6667V29.4488H84.0212V23.8685H74.2146V15.7846C78.2118 15.7426 82.3435 15.7993 86.4175 15.7528V9.58002H69.3822V44.8961H86.4482L86.4228 38.6667H74.2146Z" fill="white"/>
<path fill-rule="evenodd" clip-rule="evenodd" d="M12.0642 9.56141C8.27986 9.40621 4.49178 9.49344 0.705206 9.48664H0V15.485H0.990434C4.18858 15.485 7.38749 15.4601 10.5856 15.5065C11.1561 15.5145 11.7767 15.647 12.285 16.0072C13.9889 17.2171 14.5204 20.1444 13.8182 22.4916C13.2216 24.4888 12.0799 25.3996 10.5909 25.3815C7.36728 25.3395 4.14292 25.3656 0.919314 25.3713H0V45.0407H4.64375C4.64375 45.0407 4.64225 44.0517 4.643 43.602C4.65124 39.9724 4.60782 36.3337 4.64375 32.7041C4.64375 32.7041 4.63851 30.8111 4.64375 31.1136C4.64375 31.1136 5.00609 31.1147 5.10191 31.1136C6.36335 31.1023 8.38391 31.0966 9.77787 31.0943C10.5055 33.9536 11.5132 37.9457 12.2162 40.6849C12.592 42.1485 13.0277 43.6847 13.3848 45.0407H18.0016C16.806 40.3451 15.5431 35.3901 14.3168 30.5732C14.7301 30.2153 14.8963 30.1122 15.1523 29.8969C16.6099 28.6712 17.61 26.7964 18.2591 24.4775C19.1904 21.156 19.0324 17.9206 17.8241 14.8246C16.5343 11.5201 14.5803 9.66449 12.0642 9.56141Z" fill="white"/>
<path fill-rule="evenodd" clip-rule="evenodd" d="M101.755 26.2619C101.507 26.2619 100.951 26.2789 100.951 26.2789V29.4361H108.721C108.634 32.8267 108.021 35.6984 106.661 38.1612C105.12 40.9514 103.181 42.7129 100.75 42.9032C99.7737 42.9791 98.7653 42.7798 97.8026 42.4796C95.3965 41.7308 93.7368 39.4073 92.4971 36.3328C91.7103 34.3798 91.3547 32.2308 91.3846 29.9391C91.4258 26.7887 91.1398 23.6201 91.7776 20.5105C92.8519 15.2791 95.5058 11.6631 98.9892 11.0468C102.087 10.4997 104.781 12.1128 106.767 15.9078C107.3 16.9274 107.724 18.0738 108.223 19.2179H110.169C110.087 18.7456 110.062 18.4805 109.996 18.2403C109.51 16.489 108.899 14.8498 108.046 13.4416C106.03 10.1111 103.603 8.08107 100.544 8.07087C100.007 8.06861 99.4631 7.99724 98.933 8.09013C98.2016 8.21814 97.4448 8.32463 96.762 8.70186C94.3941 10.0103 92.4522 12.1944 91.1361 15.5023C90.2474 17.7351 89.5273 20.0676 89.4958 22.7513C89.4711 24.7971 89.397 26.843 89.4157 28.8867C89.4374 31.2396 89.534 33.5834 90.207 35.78C91.9214 41.375 94.6157 45.0715 98.79 45.8203C100.992 46.2145 103.146 45.7908 105.102 44.1324C107.55 42.057 109.28 39.0176 110.18 34.9451C110.692 32.6318 110.738 30.254 110.719 27.8569C110.719 27.2599 110.724 26.7298 110.734 26.2574C108.082 26.254 104.203 26.2551 101.755 26.2619Z" fill="white"/>
<path fill-rule="evenodd" clip-rule="evenodd" d="M149.974 42.0807C148.58 42.0807 138.875 42.0569 137.408 42.0444V9.05173L135.342 9.08231C135.329 9.53998 135.341 34.306 135.342 45.0396C139.492 45.0419 150 45.0408 150 45.0408L149.974 42.0807Z" fill="white"/>
<path fill-rule="evenodd" clip-rule="evenodd" d="M118.137 29.0828C119.481 23.6338 120.884 17.9573 122.232 12.497C122.308 12.4959 122.508 12.4947 122.584 12.4936C122.584 12.4936 124.813 21.5392 125.269 23.4141C125.715 25.2447 126.215 27.2612 126.655 29.0828H118.137ZM126.503 19.8071C125.76 16.7904 124.601 12.0654 123.781 8.62723C122.784 8.62723 121.66 8.62949 121.208 8.62949C118.262 20.2036 114.986 33.1123 112.009 45.041H114.172C115.182 40.9118 117.054 33.3615 117.313 32.3759H127.478C128.3 35.7484 129.631 41.0195 130.611 45.041H132.698C132.083 42.474 131.053 38.2202 130.642 36.5572C129.262 30.9735 127.879 25.392 126.503 19.8071Z" fill="white"/>
</svg>
