<svg width="150" height="54" viewBox="0 0 150 54" fill="none" xmlns="http://www.w3.org/2000/svg">
<path fill-rule="evenodd" clip-rule="evenodd" d="M29.2924 28.2717C32.3471 28.2717 35.3867 28.2929 38.4283 28.2581C39.1586 28.249 39.3738 27.4589 38.9386 26.428C37.8615 23.8835 36.352 22.5166 34.4356 22.4334C32.0642 22.3274 29.706 24.9961 29.2924 28.2717ZM29.1467 33.9451C30.3094 40.2376 35.2805 42.2009 38.1369 37.6461C38.4687 37.1194 38.7488 36.4594 39.2112 36.2202C39.9735 35.8251 40.6652 36.084 41.2029 37.0709C41.7443 38.0639 41.7866 39.3718 41.2311 40.5979C40.1511 42.9699 38.6435 44.4472 36.9188 45.2071C33.2532 46.8238 30.0265 45.4221 27.5357 40.7916C25.0412 36.1551 24.6098 30.7482 26.1888 25.208C27.7603 19.6996 30.6045 16.8977 34.3613 16.7675C38.5129 16.6237 42.2368 21.4752 43.141 27.9993C43.5492 30.9495 42.0723 33.9088 40.1182 33.9345C36.8051 33.9784 33.49 33.9451 30.1759 33.9451H29.1467Z" fill="white"/>
<path fill-rule="evenodd" clip-rule="evenodd" d="M108.278 28.2719C109.712 28.2719 111.147 28.2961 112.583 28.2643C113.346 28.2447 113.627 27.506 113.222 26.5357C112.059 23.7444 110.418 22.2897 108.322 22.4472C106.188 22.6091 104.647 24.3756 103.635 27.3803C103.353 28.2174 103.622 28.2901 104.061 28.2825C105.465 28.2583 106.872 28.2719 108.278 28.2719ZM109.234 33.9453C107.502 33.9453 105.771 33.9847 104.042 33.9241C103.396 33.9044 103.285 34.133 103.558 35.0927C105.116 40.5315 109.687 41.921 112.372 37.7356C112.861 36.9727 113.336 36.1478 114.084 36.2295C114.72 36.2991 115.268 36.6791 115.575 37.7069C115.92 38.8633 115.803 39.9335 115.35 40.8932C114.44 42.8262 113.207 44.128 111.814 44.9227C108.26 46.9541 105.004 45.9066 102.301 41.7349C99.7471 37.7962 98.934 32.7903 99.9162 27.3258C100.938 21.6358 103.391 18.1361 107.006 16.9827C111.499 15.5507 116.031 20.1842 117.255 27.3122C117.866 30.8619 116.445 33.915 114.16 33.9423C112.518 33.962 110.875 33.9453 109.234 33.9453Z" fill="white"/>
<path fill-rule="evenodd" clip-rule="evenodd" d="M15.3765 24.3057C13.8228 24.3057 12.2692 24.2936 10.7155 24.3087C9.47578 24.3209 8.69378 25.4244 8.71728 27.0834C8.73984 28.7681 9.50022 29.7884 10.7447 29.7914C13.3538 29.7959 15.9639 29.7748 18.5722 29.8005C19.6343 29.8126 19.8335 30.3212 19.4783 31.903C18.1812 37.6824 14.4366 41.2775 10.5454 40.4767C5.88534 39.52 2.64925 32.3238 3.45851 24.7159C4.24521 17.3184 8.81033 12.3943 13.3895 13.9731C14.9846 14.5226 16.3108 15.7971 17.5073 17.5409C18.6352 19.1863 20.1352 18.4734 20.4323 16.2043C20.6099 14.842 20.1042 13.958 19.5356 13.186C15.9743 8.33752 11.9271 6.93734 7.57247 9.58488C3.18688 12.2505 0.618117 17.5667 0.0757921 25.1337C-0.639476 35.1151 3.79029 44.3457 9.879 45.7595C16.1294 47.2082 21.9784 40.5554 23.1298 30.6936C23.549 27.1091 22.1401 24.342 19.8627 24.3087C18.3673 24.2876 16.8719 24.3057 15.3765 24.3057Z" fill="white"/>
<path fill-rule="evenodd" clip-rule="evenodd" d="M126.997 16.8257C124.959 16.7424 123.106 17.6855 121.482 19.6064C119.901 21.4713 119.246 24.0915 119.65 27.1886C120.038 30.1585 121.195 32.1127 123.071 32.7908C125.01 33.4916 126.96 34.1244 128.904 34.7889C129.588 35.022 130.221 35.3444 130.359 36.678C130.501 38.0509 129.998 38.7715 129.34 39.3361C129.109 39.5329 128.869 39.716 128.622 39.8553C126.254 41.1843 124.343 39.8402 122.634 37.226C121.764 35.8954 120.774 35.8167 120.056 36.9293C119.368 37.9995 119.383 39.7478 120.092 41.1525C122.949 46.8138 129.169 47.6146 132.535 42.7525C133.941 40.7211 134.535 38.2281 134.037 35.2476C133.543 32.2928 132.289 30.552 130.44 29.9102C128.525 29.2427 126.609 28.5797 124.695 27.9061C123.982 27.6563 123.414 27.0659 123.341 25.8141C123.27 24.5759 123.75 23.8675 124.419 23.3468C126.612 21.6347 129.284 22.3977 130.947 25.2616C131.826 26.7753 132.837 26.9918 133.634 25.8338C134.441 24.6637 134.4 22.8381 133.497 21.3381C131.72 18.3909 129.552 16.8711 126.997 16.8257Z" fill="white"/>
<path fill-rule="evenodd" clip-rule="evenodd" d="M139.906 28.0679C139.954 30.1734 139.794 32.5787 140.166 34.9583C141.067 40.7573 144.443 45.5058 147.945 45.8282C149.04 45.9327 149.795 45.0638 149.928 43.5486C150.076 41.8805 149.528 40.7043 148.429 40.3304C148.229 40.2638 148.027 40.2033 147.827 40.1382C145.261 39.3208 143.353 35.5925 143.342 31.3678C143.337 28.7233 143.364 26.0788 143.329 23.4344C143.317 22.5489 143.434 22.2204 144.034 22.2537C145.41 22.3339 146.79 22.2885 148.168 22.2764C149.274 22.2658 149.991 21.1896 150 19.5563C150.008 17.923 149.301 16.8573 148.177 16.8452C146.83 16.8301 145.48 16.7847 144.133 16.8664C143.466 16.9058 143.193 16.6499 143.241 15.4904C143.304 13.9858 143.265 12.4691 143.254 10.9584C143.24 9.13435 142.591 8.03993 141.557 8.0581C140.563 8.07626 139.93 9.15554 139.907 10.8948C139.897 11.7455 139.922 12.5947 139.902 13.4439C139.877 14.5232 140.176 15.8628 139.772 16.6015C139.393 17.2963 138.557 16.7695 137.927 16.8376C137 16.9391 136.343 18.0153 136.33 19.4927C136.316 21.0125 137.002 22.2053 137.945 22.2749C138.297 22.2991 138.654 22.3415 139 22.2658C139.697 22.1099 139.996 22.4217 139.924 23.6705C139.844 25.0283 139.906 26.4058 139.906 28.0679Z" fill="white"/>
<path fill-rule="evenodd" clip-rule="evenodd" d="M71.2949 19.7394C71.1135 19.5427 71.1878 19.2868 71.1587 19.0764C70.9397 17.5188 70.2141 16.6833 69.23 16.8543C68.3794 16.9966 67.8201 18.0441 67.8182 19.5987C67.8107 27.4306 67.8173 35.2641 67.8116 43.099C67.8116 44.3282 68.1604 45.1713 68.8502 45.6269C70.0157 46.3944 71.1671 45.0971 71.1822 42.9371C71.2103 39.3042 71.2 35.6697 71.185 32.0368C71.1793 30.9394 71.262 29.8677 71.4528 28.8278C72.0948 25.3356 73.6005 23.3618 75.751 22.4838C76.9081 22.013 77.3978 20.6976 77.1374 19.0114C76.9034 17.5007 76.0236 16.7635 74.9267 17.1192C73.5874 17.5536 72.405 18.5466 71.2949 19.7394Z" fill="white"/>
<path fill-rule="evenodd" clip-rule="evenodd" d="M15.3765 24.3057C16.8719 24.3057 18.3673 24.2876 19.8627 24.3087C22.1401 24.342 23.549 27.1091 23.1298 30.6936C21.9784 40.5554 16.1294 47.2082 9.879 45.7595C3.79029 44.3457 -0.639476 35.1151 0.0757921 25.1337C0.618117 17.5667 3.18688 12.2505 7.57247 9.58488C11.9271 6.93734 15.9743 8.33752 19.5356 13.186C20.1042 13.958 20.6099 14.842 20.4323 16.2043C20.1352 18.4734 18.6352 19.1863 17.5073 17.5409C16.3108 15.7971 14.9846 14.5226 13.3895 13.9731C8.81033 12.3943 4.24521 17.3184 3.45851 24.7159C2.64925 32.3238 5.88534 39.52 10.5454 40.4767C14.4366 41.2775 18.1812 37.6824 19.4783 31.903C19.8335 30.3212 19.6343 29.8126 18.5722 29.8005C15.9639 29.7748 13.3538 29.7959 10.7447 29.7914C9.50022 29.7884 8.73984 28.7681 8.71728 27.0834C8.69378 25.4244 9.47578 24.3209 10.7155 24.3087C12.2692 24.2936 13.8228 24.3057 15.3765 24.3057Z" fill="white"/>
<path fill-rule="evenodd" clip-rule="evenodd" d="M93.8895 31.2666C93.8885 26.3955 91.4373 22.4311 88.422 22.4251C85.4322 22.419 82.9151 26.4273 82.8963 31.2227C82.8757 36.2664 85.3514 40.3141 88.4267 40.2657C91.5002 40.2202 93.8923 36.2785 93.8895 31.2666ZM82.8061 42.8829C82.7713 43.0645 82.7337 43.2325 82.7074 43.4051C82.433 45.1822 81.8004 45.9723 80.7863 45.7983C79.8933 45.6408 79.32 44.5086 79.3163 42.7769C79.3059 37.161 79.3125 31.5421 79.3125 25.9248C79.3125 21.0128 79.3068 16.1023 79.3153 11.1933C79.3181 9.48435 79.8088 8.38848 80.6453 8.11147C81.7882 7.73304 82.698 8.94553 82.714 10.9526C82.7366 13.8287 82.7187 16.7078 82.7187 19.9108C84.9331 17.2179 87.3355 16.346 89.9024 16.9954C92.489 17.6508 94.5333 19.8336 95.9789 23.353C98.2224 28.8144 97.807 36.4027 95.0437 41.1542C91.8358 46.6687 87.7463 47.256 82.8061 42.8829Z" fill="white"/>
<path fill-rule="evenodd" clip-rule="evenodd" d="M54.3609 40.1759C57.472 40.185 59.912 36.3371 59.927 31.3933C59.9402 26.4481 57.5077 22.4685 54.4446 22.4246C51.3692 22.3807 48.8662 26.4193 48.8709 31.413C48.8756 36.2766 51.3128 40.1653 54.3609 40.1759ZM60.0333 19.8241C60.21 17.8805 60.7043 16.9556 61.6264 16.8451C62.6255 16.727 63.432 17.7836 63.4385 19.4063C63.4677 27.3896 63.4733 35.3684 63.4677 43.3517C63.4667 44.6035 62.8699 45.6101 62.1377 45.8084C61.3096 46.0324 60.5916 45.4466 60.271 44.2417C60.1611 43.8239 60.1084 43.3668 60.0304 42.9263C54.7726 47.4114 50.3024 46.482 47.2675 40.2773C44.5605 34.7462 44.7335 26.9915 47.7055 21.5542C50.106 17.163 55.1175 14.2052 60.0333 19.8241Z" fill="white"/>
<path fill-rule="evenodd" clip-rule="evenodd" d="M126.997 16.8257C129.552 16.8711 131.72 18.3909 133.497 21.3381C134.4 22.8381 134.441 24.6637 133.634 25.8338C132.837 26.9918 131.826 26.7753 130.947 25.2616C129.284 22.3977 126.612 21.6347 124.419 23.3468C123.75 23.8675 123.27 24.5759 123.341 25.8141C123.414 27.0659 123.982 27.6563 124.695 27.9061C126.609 28.5797 128.525 29.2427 130.44 29.9102C132.289 30.552 133.543 32.2928 134.037 35.2476C134.535 38.2281 133.941 40.7211 132.535 42.7525C129.169 47.6146 122.949 46.8138 120.092 41.1525C119.383 39.7478 119.368 37.9995 120.056 36.9293C120.774 35.8167 121.764 35.8954 122.634 37.226C124.343 39.8402 126.254 41.1843 128.622 39.8553C128.869 39.716 129.109 39.5329 129.34 39.3361C129.998 38.7715 130.501 38.0509 130.359 36.678C130.221 35.3444 129.588 35.022 128.904 34.7889C126.96 34.1244 125.01 33.4916 123.071 32.7908C121.195 32.1127 120.038 30.1585 119.65 27.1886C119.246 24.0915 119.901 21.4713 121.482 19.6064C123.106 17.6855 124.959 16.7424 126.997 16.8257Z" fill="white"/>
<path fill-rule="evenodd" clip-rule="evenodd" d="M139.906 28.0679C139.906 26.4058 139.844 25.0283 139.924 23.6705C139.996 22.4217 139.697 22.1099 139 22.2658C138.654 22.3415 138.297 22.2991 137.945 22.2749C137.002 22.2053 136.316 21.0125 136.33 19.4927C136.343 18.0153 137 16.9391 137.927 16.8376C138.557 16.7695 139.393 17.2963 139.772 16.6015C140.176 15.8628 139.877 14.5232 139.902 13.4439C139.922 12.5947 139.897 11.7455 139.907 10.8948C139.93 9.15554 140.563 8.07626 141.557 8.0581C142.591 8.03993 143.24 9.13435 143.254 10.9584C143.265 12.4691 143.304 13.9858 143.241 15.4904C143.193 16.6499 143.466 16.9058 144.133 16.8664C145.48 16.7847 146.83 16.8301 148.177 16.8452C149.301 16.8573 150.008 17.923 150 19.5563C149.991 21.1896 149.274 22.2658 148.168 22.2764C146.79 22.2885 145.41 22.3339 144.034 22.2537C143.434 22.2204 143.317 22.5489 143.329 23.4344C143.364 26.0788 143.337 28.7233 143.342 31.3678C143.353 35.5925 145.261 39.3208 147.827 40.1382C148.027 40.2033 148.229 40.2638 148.429 40.3304C149.528 40.7043 150.076 41.8805 149.928 43.5486C149.795 45.0638 149.04 45.9327 147.945 45.8282C144.443 45.5058 141.067 40.7573 140.166 34.9583C139.794 32.5787 139.954 30.1734 139.906 28.0679Z" fill="white"/>
<path fill-rule="evenodd" clip-rule="evenodd" d="M71.2949 19.7394C72.405 18.5466 73.5874 17.5536 74.9267 17.1192C76.0236 16.7635 76.9034 17.5007 77.1374 19.0114C77.3978 20.6976 76.9081 22.013 75.751 22.4838C73.6005 23.3618 72.0948 25.3356 71.4528 28.8278C71.262 29.8677 71.1793 30.9394 71.185 32.0368C71.2 35.6697 71.2103 39.3042 71.1822 42.9371C71.1671 45.0971 70.0157 46.3944 68.8502 45.6269C68.1604 45.1713 67.8116 44.3282 67.8116 43.099C67.8173 35.2641 67.8107 27.4306 67.8182 19.5987C67.8201 18.0441 68.3794 16.9966 69.23 16.8543C70.2141 16.6833 70.9397 17.5188 71.1587 19.0764C71.1878 19.2868 71.1135 19.5427 71.2949 19.7394Z" fill="white"/>
</svg>
