<svg width="150" height="54" viewBox="0 0 150 54" fill="none" xmlns="http://www.w3.org/2000/svg">
<path fill-rule="evenodd" clip-rule="evenodd" d="M54.6982 24.7253C54.8479 22.2074 57.6753 20.2571 61.0107 20.3711L61.1007 20.3745C64.0653 20.2376 66.6154 21.9404 66.7964 24.1772C66.8115 24.3597 66.8097 24.5428 66.7919 24.7253H54.6982ZM61.0909 16.4262C53.0867 16.4262 49.5819 20.4771 48.4624 23.9041C48.1549 24.828 48.0007 25.7773 48.0025 26.7306C47.9597 28.9876 48.8599 31.1975 50.5758 33.0466C53.1749 35.5692 57.1708 37.0458 61.4047 37.0492C65.7259 37.1679 68.6129 36.6151 70.8208 35.6685C71.262 35.4524 71.4715 35.0492 71.344 34.6655V32.0355C71.344 31.4995 70.9153 31.2465 70.2976 31.5699C67.7127 32.8198 64.6473 33.3766 61.5927 33.1492C57.9935 33.1137 54.995 31.0573 54.6046 28.3569H72.3895C72.7906 28.3569 73.1169 28.1141 73.1231 27.8115C73.436 24.1403 72.0232 16.4262 61.0909 16.4262ZM17.9857 33.4491H10.1704C9.16765 33.4276 8.19965 33.1707 7.39834 32.7145C6.56226 32.2717 6.07202 31.5444 6.09074 30.7729C6.09074 29.7061 7.04269 27.5753 11.8024 27.5753H17.9866L17.9857 33.4491ZM23.7928 24.6938C23.7928 22.0014 22.9986 19.9558 21.281 18.5429C19.566 17.13 16.113 16.4269 12.9113 16.4269C9.69888 16.4175 6.53908 17.0522 3.75721 18.2665C3.58073 18.3457 3.47198 18.4899 3.47555 18.6456L3.71621 21.6143C3.78217 21.9021 4.14584 22.0947 4.52733 22.0437C4.65301 22.0276 4.77066 21.9853 4.86604 21.9223C8.78972 20.0987 13.4978 19.7586 15.8937 20.6744C17.237 21.2581 18.0418 22.3557 17.9866 23.5257V23.9591H11.4468C8.63284 23.9591 0.0117986 24.7488 0.0117986 30.7252V30.789C-0.123685 32.6333 0.913834 34.4166 2.80526 35.5886C4.84286 36.6721 7.30653 37.2035 9.79337 37.0968H23.0298C23.4567 37.0968 23.8035 36.8352 23.8035 36.5131V24.6696L23.7928 24.6938ZM89.5166 33.1022C86.2837 33.1022 83.9502 31.3176 82.9671 29.099C82.2718 27.5632 82.2718 25.8974 82.9671 24.3617C83.9502 22.143 86.2837 20.3591 89.5166 20.3591C96.7454 20.3591 96.9861 25.9249 96.9861 26.7306C96.9861 27.5357 96.7454 33.1022 89.5166 33.1022ZM102.919 26.738C102.976 24.4798 102.074 22.2664 100.346 20.4221C95.7052 15.9089 87.0958 15.0884 81.1149 18.5905C80.2075 19.1219 79.3928 19.7371 78.6877 20.4221C75.2071 24.2235 75.2071 29.2533 78.6877 33.0546C81.245 35.6161 85.2676 37.1029 89.5175 37.0579C92.2602 37.0646 94.9458 36.4541 97.2276 35.3048V37.7999C97.2276 41.1867 93.3039 41.8026 90.7921 41.9206C89.0647 41.9642 87.3355 41.8931 85.6242 41.708C84.9343 41.6288 84.4529 41.708 84.4529 42.2682V45.2685C84.4708 45.5523 84.7881 45.7716 85.1633 45.7582C90.9909 46.1373 94.9155 46.0581 97.8658 44.7874C99.932 43.8649 101.467 42.3916 102.166 40.658C102.687 39.3202 102.938 37.9308 102.908 36.5366V26.738H102.919ZM122.181 17.5869V19.9558C122.24 20.2933 121.926 20.6033 121.479 20.6489C121.363 20.6603 121.245 20.6529 121.133 20.6274C116.048 19.8378 112.921 21.5432 112.921 25.0889V36.5366C112.921 36.8587 112.573 37.1203 112.147 37.1203H107.647C107.22 37.1203 106.874 36.8587 106.874 36.5366V24.8434C106.819 22.6066 108.024 20.457 110.189 18.93C112.389 17.3071 115.348 16.4047 118.424 16.4188C119.477 16.4208 120.527 16.4946 121.562 16.6402C122.096 16.7744 122.18 17.0112 122.18 17.6197V17.5875L122.181 17.5869ZM33.9612 36.5373C33.9612 36.8593 33.6135 37.121 33.1866 37.121H28.688C28.2602 37.121 27.9134 36.8593 27.9134 36.5373V8.62759C27.9134 8.30756 28.2539 8.04658 28.6773 8.04256H33.1759C33.6037 8.04256 33.9514 8.30421 33.9514 8.62759V36.5373H33.9612ZM44.528 36.5373C44.528 36.8593 44.1804 37.121 43.7543 37.121H39.2548C38.827 37.121 38.4803 36.8593 38.4803 36.5373V8.62759C38.4803 8.30421 38.8279 8.04256 39.2548 8.04256H43.7543C44.1813 8.04256 44.528 8.30421 44.528 8.62759V36.5373ZM143.135 29.1157C142.151 31.3344 139.818 33.0627 136.586 33.1183C133.352 33.174 131.019 31.3337 130.046 29.1157C129.351 27.5793 129.351 25.9135 130.046 24.3785C131.03 22.1598 133.363 20.4302 136.586 20.3752C139.808 20.3201 142.151 22.1598 143.135 24.3785C143.827 25.9115 143.827 27.5747 143.135 29.1077V29.1157ZM147.424 20.4302C142.784 15.9177 134.175 15.0978 128.194 18.5986C127.287 19.1306 126.472 19.7458 125.767 20.4302C124.05 22.2799 123.15 24.4892 123.193 26.7468C123.15 29.0044 124.05 31.2143 125.767 33.0627C130.408 37.5758 139.017 38.3964 144.997 34.8942C145.905 34.3636 146.72 33.7483 147.424 33.0627C149.14 31.2143 150.041 29.0037 149.999 26.7468C150.041 24.4898 149.14 22.2799 147.424 20.4302Z" fill="white"/>
</svg>
