<svg width="150" height="54" viewBox="0 0 150 54" fill="none" xmlns="http://www.w3.org/2000/svg">
<path fill-rule="evenodd" clip-rule="evenodd" d="M37.4313 36.2914V11.1894H51.08V14.3363H40.2576V22.0538H49.977V25.2016H40.2576V33.0691H51.8384V36.216H37.4313V36.2914ZM66.1764 36.2914L61.4887 29.6231L56.8009 36.2914H53.4934L59.9036 27.3746L53.1479 18.1578H56.8708L61.4887 25.0524L66.1764 18.1578H69.8294L63.4192 27.3746L69.4856 36.2914H66.1764ZM74.0351 33.5937V45.9575H71.2088V27.4492C71.2088 22.7285 74.5172 17.7086 79.6878 17.7086C84.9258 17.7086 88.8552 21.3055 88.8552 27.2246C88.8552 32.9946 84.8575 36.9661 80.308 36.9661C78.1019 36.9661 75.1382 35.9168 74.0351 33.5937ZM85.8915 27.2246C85.8915 23.1785 83.4789 20.7817 79.2049 21.0055C77.137 21.0809 73.9668 22.7285 74.2416 28.4993C74.3107 30.3723 76.1031 33.8929 80.0324 33.8929C83.4098 33.8929 85.8915 31.7953 85.8915 27.2246ZM91.2685 36.2914V18.1578H94.0949V20.1062C95.4735 18.3824 97.6097 17.7832 99.8849 17.7832V21.0809C99.5402 21.0055 96.162 20.5554 94.0949 25.3516V36.3669H91.2685V36.2914ZM100.643 27.2255C100.643 21.9793 104.09 17.7086 108.846 17.7086C114.775 17.7086 116.98 21.9801 116.98 27.4492V28.9485H103.745C103.952 32.3954 106.778 34.1929 109.398 34.1184C111.327 34.0438 112.638 33.4446 114.017 31.9462L115.878 34.0447C114.155 35.8422 111.948 37.0406 109.26 37.0406C104.228 36.9661 100.643 32.92 100.643 27.2255ZM108.639 20.7817C105.951 20.7817 103.883 23.3277 103.745 26.1016H114.016C114.016 23.4031 112.225 20.7817 108.639 20.7817ZM118.429 33.7438L120.496 31.7207C120.427 31.7207 121.53 32.92 121.669 32.9946C122.151 33.4446 122.633 33.7438 123.254 33.8938C125.045 34.4184 128.285 34.2684 128.562 31.5707C128.699 30.0723 127.665 29.2476 126.494 28.723C124.977 28.1247 123.322 27.8992 121.806 27.15C120.082 26.3262 118.981 24.9024 118.981 22.8048C118.981 17.3331 126.148 16.4348 129.388 18.9824C129.527 19.1324 131.112 20.7054 131.043 20.7054L128.975 22.5047C127.941 21.1555 126.976 20.4808 124.771 20.4808C123.667 20.4808 122.151 21.0055 121.875 22.2793C121.461 24.0777 123.322 24.7524 124.563 25.127C126.218 25.5762 128.01 25.8762 129.457 26.85C131.457 28.1993 131.94 31.1207 131.181 33.3692C130.353 35.8422 127.872 36.816 125.666 36.8898C123.047 37.0406 120.772 36.1414 118.911 34.1192C118.772 34.1192 118.429 33.7438 118.429 33.7438ZM132.973 33.7438L135.042 31.7207C134.973 31.7207 136.075 32.92 136.213 32.9946C136.695 33.4446 137.179 33.7438 137.798 33.8938C139.59 34.4184 142.831 34.2684 143.107 31.5707C143.244 30.0723 142.21 29.2476 141.038 28.723C139.521 28.1247 137.867 27.8992 136.351 27.15C134.628 26.3262 133.525 24.9024 133.525 22.8048C133.525 17.3331 140.694 16.4348 143.934 18.9824C144.072 19.1324 145.657 20.7054 145.589 20.7054L143.521 22.5047C142.486 21.1555 141.52 20.4808 139.315 20.4808C138.212 20.4808 136.696 21.0055 136.42 22.2793C136.007 24.0777 137.867 24.7524 139.108 25.127C140.763 25.5762 142.556 25.8762 144.003 26.85C146.002 28.1993 146.485 31.1207 145.726 33.3692C144.899 35.8422 142.418 36.816 140.211 36.8898C137.592 37.0406 135.317 36.1414 133.456 34.1192C133.318 34.1192 132.974 33.7438 132.974 33.7438H132.973ZM146.415 18.1578V16.2093H145.795V15.8347H147.449V16.2093H146.829V18.1578H146.415ZM149.517 18.1578V16.3602L148.897 18.1578H148.759L148.139 16.3602V18.1578H147.794V15.8347H148.346L148.897 17.4094L149.449 15.8347H150V18.1578H149.517ZM18.2674 36.2914L16.1995 30.2969H5.0324L2.96369 36.2914H0L8.96176 11.1894H12.201L21.0945 36.2914H18.2674ZM10.4777 14.7863L6.27363 27.2255H15.0273L10.4777 14.7863ZM22.9551 36.2914H25.8505V11.1903H22.9551V36.2914ZM30.1928 36.2914H33.0882V18.5332H30.1928V36.2914ZM35.8454 12.7633V12.4632C33.6401 12.3887 31.847 10.4402 31.7787 8.04256H31.365C31.2959 10.4402 29.5035 12.3887 27.2982 12.4632V12.7633C29.5035 12.8378 31.2959 14.7863 31.365 17.184H31.7787C31.847 14.7863 33.6401 12.8378 35.8454 12.7633Z" fill="white"/>
</svg>
