<svg width="150" height="54" viewBox="0 0 150 54" fill="none" xmlns="http://www.w3.org/2000/svg">
<path fill-rule="evenodd" clip-rule="evenodd" d="M85.9512 16.4554C87.7913 16.4554 88.9252 17.4424 89.5578 18.273L89.7381 18.5125L89.8464 18.1924C90.1335 17.3702 90.7052 16.92 91.4477 16.92H93.2696L93.2538 36.064C93.2538 43.3622 89.3601 45.9574 86.0247 45.9574C84.4052 45.9574 82.6126 45.293 81.2367 44.1844L80.9631 43.9641L81.4027 42.2548L81.7135 41.0872C82.0512 39.8209 82.5367 39.5067 83.3686 39.8871C84.0051 40.2374 84.9564 40.625 86.0018 40.625C88.1526 40.625 89.3411 39.0854 89.3411 36.3V35.7198L89.0383 36.064C88.2554 36.9632 87.2717 37.4038 86.0247 37.4038C82.3738 37.4038 79.8236 33.0644 79.8236 26.8519C79.8236 20.6347 82.2892 16.4554 85.9512 16.4554ZM107.468 16.5697C109.488 16.5697 112.494 17.8734 112.494 21.4629V24.1833L110.445 24.1785C110.273 24.1785 109.401 24.1014 109.112 22.6413L109.095 22.5342C108.968 21.8902 108.17 21.5062 107.468 21.5062C105.303 21.5062 103.791 23.9329 103.791 27.3996C103.791 31.4165 105.74 33.2184 107.672 33.2184C109.663 33.2184 111.202 30.9422 111.391 30.6485L111.41 30.6184L111.623 30.2729L113.246 34.362L113.139 34.5642C113.12 34.5991 111.101 38.3078 107.388 38.3078C103.108 38.3078 100.006 33.7409 100.006 27.4418C100.006 21.1463 103.141 16.5697 107.468 16.5697ZM21.42 16.5493C25.5896 16.5493 28.6159 21.0957 28.6159 27.3587C28.6159 33.6205 25.5896 38.1682 21.42 38.1682C17.2654 38.1682 14.251 33.6205 14.251 27.3587C14.251 21.0957 17.2654 16.5493 21.42 16.5493ZM36.8026 16.5493C40.9675 16.5493 44 21.0957 44 27.3587C44 33.6205 40.9675 38.1682 36.8026 38.1682C32.644 38.1682 29.6296 33.6205 29.6296 27.3587C29.6296 21.0957 32.6448 16.5493 36.8026 16.5493ZM120.749 16.5493C124.913 16.5493 127.945 21.0957 127.945 27.3587C127.945 33.6205 124.913 38.1682 120.749 38.1682C116.591 38.1682 113.577 33.6205 113.577 27.3587C113.577 21.0957 116.591 16.5493 120.749 16.5493ZM61.1641 16.9754C62.5527 16.9754 63.2249 18.0106 63.2249 20.1436L63.2169 37.8359H63.209V37.8431H62.2918L61.369 37.848C61.3444 37.848 61.3231 37.8431 61.2978 37.8431H59.3169V33.1125H59.3185L59.3075 16.9754H61.1641ZM47.2603 8.94775C48.3436 8.94775 49.3479 9.28119 49.3479 11.7308V23.975H49.9765C50.4478 23.975 50.7626 23.7981 50.9175 23.4514L53.6725 16.9754H58.1229L54.4562 25.2546C54.2688 25.6747 54.0734 26.037 53.8837 26.3416L53.7508 26.5342L53.8773 26.7364C54.0734 27.0469 54.2593 27.4394 54.4206 27.9004L55.9135 32.1929L58.1632 37.8504H55.1402C54.0015 37.8504 53.3973 37.5591 52.7885 35.8678L50.6139 29.6289C50.4731 29.2594 50.1671 29.1799 49.718 29.1799H49.3479V37.8492H45.406L45.4012 8.94896H47.2595L47.2603 8.94775ZM73.5632 16.5011C76.7689 16.5011 78.4627 19.2901 78.4627 24.5661L78.469 37.8419H76.6044C75.1811 37.8419 74.5224 36.8284 74.5224 34.6677V25.5772C74.5224 23.0434 74.0456 22.0623 72.8223 22.0623C71.3032 22.0623 70.0862 23.4635 69.6513 25.718C69.4868 26.4619 69.407 27.2781 69.407 28.2206V37.8419H65.4912L65.4801 16.967H67.2466C68.3157 16.967 69.0258 17.6423 69.2354 18.8688L69.3208 19.3672L69.5604 19.0013C70.2768 17.8577 71.557 16.5011 73.5632 16.5011ZM145.439 16.5685L145.622 16.5733C148.525 16.6817 150 19.3708 150 24.5649L149.996 37.8359H148.236C146.854 37.8359 146.238 36.8994 146.238 34.7977V25.5122C146.238 22.8508 145.811 21.8589 144.661 21.8589C143.069 21.8589 142.043 24.0292 141.741 26.149C141.593 26.9001 141.531 27.6536 141.531 28.6587V37.8359H137.764V25.5122C137.764 23.2035 137.267 22.0094 136.251 21.8625C134.602 21.6242 133.619 24.0087 133.262 26.2272C133.131 27.059 133.064 27.8571 133.064 28.6587V37.8359H129.325L129.341 17.0452H130.986C132.013 17.0452 132.691 17.6808 132.897 18.8388L133.041 19.6416L133.412 19.0301C133.979 18.1153 135.199 16.5697 137.02 16.5697C138.756 16.5697 140.004 17.5905 140.729 19.5995L140.951 20.211L141.235 19.6645C142.243 17.7265 143.816 16.5709 145.441 16.5709L145.439 16.5685ZM2.39362 8.95979H6.48973C10.0798 8.95979 12.3983 11.8933 12.3983 16.4349C12.3983 19.4033 11.4177 21.121 10.8326 21.8854L10.3296 22.539L10.9061 23.0325C12.3049 24.2278 13.136 26.5799 13.136 29.334C13.136 34.4426 10.5621 37.7432 6.57118 37.7432L1.88753 37.7444L1.87963 37.7432H0V11.9595C0.0102798 10.3332 0.863505 9.01637 1.92786 8.95979H2.39362ZM21.42 21.6073C19.4557 21.6073 18.0925 23.975 18.0925 27.3599C18.0925 30.7424 19.4557 33.1137 21.42 33.1137C23.423 33.1137 24.7744 30.7978 24.7744 27.3599C24.7744 23.975 23.3953 21.6061 21.42 21.6061V21.6073ZM36.8026 21.6073C34.8391 21.6073 33.4727 23.975 33.4727 27.3599C33.4727 30.7424 34.8391 33.1137 36.8018 33.1137C38.8055 33.1137 40.1569 30.7978 40.1569 27.3599C40.1569 23.975 38.7731 21.6061 36.8026 21.6061V21.6073ZM120.749 21.6073C118.786 21.6073 117.418 23.975 117.418 27.3599C117.418 30.7424 118.786 33.1137 120.748 33.1137C122.751 33.1137 124.105 30.7978 124.105 27.3599C124.105 23.975 122.72 21.6061 120.748 21.6061L120.749 21.6073ZM6.83292 25.0476H4.66071C3.96248 25.1968 3.64617 25.8384 3.64617 27.077V32.8682L6.83371 32.8742C8.41127 32.873 9.38943 31.4092 9.38943 28.9416C9.38943 26.5342 8.38438 25.0476 6.83292 25.0476ZM86.5126 21.7036C84.0114 21.7036 83.8161 25.5254 83.8161 26.6967C83.8161 29.3545 84.5784 32.1929 86.7182 32.1929C87.9478 32.1929 89.4139 31.2744 89.4139 26.8929C89.4139 22.2477 87.7573 21.7048 86.5126 21.7048V21.7036ZM6.46443 13.6784H4.8331C4.01862 13.7602 3.64617 14.3934 3.64617 15.7283V20.595H6.51503C8.12738 20.595 8.70147 18.7015 8.70147 17.0789C8.70147 14.9519 7.86406 13.6784 6.46443 13.6784Z" fill="white"/>
<path d="M99.8076 35.617C99.8076 36.8861 98.7745 37.9149 97.5 37.9149C96.2254 37.9149 95.1923 36.8861 95.1923 35.617C95.1923 34.348 96.2254 33.3192 97.5 33.3192C98.7745 33.3192 99.8076 34.348 99.8076 35.617Z" fill="white"/>
<path d="M63.3461 12.6383C63.3461 13.9074 62.3129 14.9362 61.0384 14.9362C59.7639 14.9362 58.7307 13.9074 58.7307 12.6383C58.7307 11.3692 59.7639 10.3404 61.0384 10.3404C62.3129 10.3404 63.3461 11.3692 63.3461 12.6383Z" fill="white"/>
</svg>
