<svg width="150" height="54" viewBox="0 0 150 54" fill="none" xmlns="http://www.w3.org/2000/svg">
<path fill-rule="evenodd" clip-rule="evenodd" d="M127.506 20.773C127.433 20.6056 127.322 20.5055 127.204 20.5055H125.158C124.971 20.5055 124.808 20.7521 124.771 21.0972L124.612 22.5615C124.158 21.7905 123.705 21.2975 123.055 20.8208L122.851 20.652C122.826 20.6355 122.802 20.6161 122.776 20.6071C120.554 19.6852 118.321 20.9508 116.492 24.1693C115.579 25.7576 114.887 27.5984 114.428 29.5797L117.117 8.93608C117.14 8.77172 117.12 8.59242 117.064 8.45794C117.009 8.32346 116.922 8.24427 116.831 8.24427H114.34C114.253 8.24427 114.174 8.31151 114.118 8.43403L103.278 31.567C103.658 28.1005 105.788 8.91665 105.788 8.91665C105.788 8.8793 105.794 8.83746 105.794 8.8016C105.794 8.67758 105.772 8.54908 105.727 8.45047C105.672 8.32047 105.586 8.24427 105.499 8.24427H102.747C102.66 8.24427 102.578 8.31599 102.523 8.43403L88.7745 38.4522C88.5435 34.0817 87.4445 29.3227 87.4445 29.3227C85.602 22.185 81.5023 19.8735 79.1773 23.9661L79.1616 23.9735L78.7965 24.4741C80.4829 19.3849 84.7624 19.612 87.5162 25.6037C87.5162 25.6037 88.7406 28.3859 89.6086 32.5247C89.8404 31.0634 89.9823 29.5483 90.0257 28.0004C88.5908 24.3321 86.9746 22.1775 86.9746 22.1775C83.4946 17.7398 79.3295 19.6135 78.3984 25.3557L78.3858 25.3796L78.206 26.1565C78.3196 20.1499 82.0834 16.3069 86.0522 18.8903C86.0522 18.8903 87.9207 20.1873 89.8065 23.0591C89.7813 22.8305 89.7553 22.6019 89.7222 22.3718C89.5188 20.8552 89.2223 19.4163 88.8415 18.076C86.6419 16.2755 84.6914 15.9408 84.6914 15.9408C80.5026 15.3909 77.3932 20.9433 78.1059 26.7975L78.1004 26.8289L78.1477 27.6761C76.6592 22.3658 78.9014 15.4836 83.02 13.964C83.02 13.964 84.9334 13.3364 87.2852 13.9984C86.6892 12.8075 86.008 11.7646 85.2527 10.883C82.8946 11.406 81.1349 12.9495 81.1349 12.9495C77.364 16.4279 76.1388 24.1812 78.3046 28.5816L78.3069 28.607L78.5726 29.2988C75.8802 26.1072 76.0024 18.0222 79.1687 12.8135C79.1687 12.8135 80.6485 10.4826 82.8505 8.82999C81.9423 8.31599 81.0001 8.05302 80.0509 8.04256C78.21 10.6902 77.1362 13.5666 77.1362 13.5666C74.7891 20.1484 75.7801 28.0198 78.8162 29.7829L78.8281 29.8008L79.2404 30.149C76.0655 29.9338 74.0322 22.8155 75.3977 15.3118C75.3977 15.3118 76.0269 12.0754 77.4145 8.6731C76.6198 9.06308 75.8684 9.63237 75.1636 10.3466C74.2672 14.3884 74.0993 17.9072 74.0993 17.9072C73.8076 25.8263 76.7467 31.7059 79.8435 30.3627L79.8577 30.3701L80.3071 30.276C77.4988 33.094 73.8556 28.8535 73.0562 21.0614C73.0562 21.0614 72.7353 17.5799 73.0562 13.2423C72.3868 14.4406 71.8011 15.8168 71.3162 17.3543C71.6166 21.6277 72.3845 24.7684 72.3845 24.7684C74.2254 31.9032 78.3251 34.2177 80.6501 30.1221L80.6674 30.1161L81.0317 29.6171C79.3461 34.7048 75.0658 34.4776 72.3135 28.486C72.3135 28.486 70.9023 25.1524 70.1644 21.2691C70.1659 21.0868 70.1368 20.912 70.0761 20.773C70.0004 20.6056 69.89 20.5055 69.7702 20.5055H67.7258C67.5382 20.5055 67.3766 20.7521 67.3372 21.0972C67.3372 21.0972 67.1803 21.5485 67.1085 22.436C66.6544 21.668 66.1159 21.2227 65.6248 20.8208L65.4166 20.652C65.393 20.6355 65.367 20.6161 65.3433 20.6071C63.1216 19.6852 60.8888 20.9508 59.0598 24.1693C57.9789 26.0505 57.2031 28.2813 56.7624 30.6914L56.7245 30.8498L57.5941 21.3766C57.613 21.163 57.5815 20.9389 57.5058 20.77C57.4293 20.6027 57.3182 20.504 57.2031 20.5055L55.0208 20.5115C54.83 20.513 54.666 20.77 54.6321 21.1286L52.3773 44.3721C52.3576 44.5903 52.3899 44.8159 52.464 44.9877C52.5389 45.1536 52.6509 45.2507 52.7675 45.2507L55.0673 45.2612C55.2612 45.2612 55.426 44.9982 55.4576 44.6396L56.3264 35.1814C56.3358 35.2412 56.3437 35.28 56.3437 35.28C56.3358 36.2199 56.3768 37.1731 56.4699 38.1249C56.8081 41.6796 58.4748 44.9952 60.2715 45.6706C61.8389 46.207 63.515 45.4554 65.1691 43.5249C65.1367 43.8626 65.0847 44.3721 65.0847 44.3721C65.08 44.417 65.0784 44.4618 65.0784 44.5096C65.0784 44.6829 65.1099 44.8532 65.1691 44.9877C65.2432 45.1566 65.3551 45.2507 65.475 45.2507L67.5043 45.2612C67.6951 45.2612 67.8591 45.0071 67.8938 44.6515L69.6803 26.3583C71.0166 29.3586 72.7645 31.9211 72.7645 31.9211C76.2437 36.3618 80.4072 34.4866 81.3383 28.7475L81.3525 28.722L81.5331 27.9421C81.4195 33.9472 77.6541 37.7962 73.6853 35.2083C73.6853 35.2083 71.9737 34.0189 70.1707 31.3951C70.1856 31.5192 70.199 31.6477 70.2156 31.7747C70.43 33.3451 70.7399 34.8362 71.1412 36.2199C73.2383 37.853 75.0477 38.1623 75.0477 38.1623C79.2341 38.7151 82.3443 33.1583 81.6332 27.3026L81.6387 27.2727L81.5891 26.4225C83.0791 31.7328 80.8361 38.6255 76.7152 40.1346C76.7152 40.1346 74.9153 40.7323 72.6573 40.154C73.1981 41.2299 73.8068 42.1951 74.4793 43.0229C76.8192 42.4865 78.5521 40.9624 78.5521 40.9624C82.3246 37.4854 83.5514 29.7306 81.3856 25.3347L81.3809 25.3019L81.116 24.6145C83.8092 27.8046 83.6886 35.8896 80.5216 41.0999C80.5216 41.0999 79.011 43.4711 76.7782 45.1267C77.3932 45.5197 78.0271 45.7976 78.668 45.9575H79.581C81.4566 43.2829 82.5509 40.3453 82.5509 40.3453C84.9003 33.7634 83.9101 25.8891 80.8716 24.1304L80.8598 24.1065L80.449 23.7629C83.6247 23.9795 85.6588 31.0963 84.2925 38.6031C84.2925 38.6031 83.6097 42.1144 82.0968 45.675C82.2182 45.6242 82.3349 45.5764 82.4555 45.5167C83.2234 45.1491 83.9456 44.6097 84.6165 43.9552C85.5547 39.8268 85.7281 36.178 85.7281 36.178C86.0222 28.2648 83.0823 22.3807 79.9831 23.727L79.9705 23.721L79.5219 23.8107C82.3286 20.9956 85.9741 25.2361 86.7751 33.0283C86.7751 33.0283 87.2371 36.6054 86.891 40.8429C86.8248 41.4555 86.6892 42.3415 86.4274 43.2888C86.3486 43.5518 86.2501 43.8626 86.1302 44.2242L86.1334 44.2137C86.1318 44.2242 86.1271 44.2317 86.1239 44.2436C86.1208 44.2541 86.1208 44.2556 86.1208 44.2645C86.0735 44.4155 86.064 44.6052 86.105 44.7726C86.1507 44.9728 86.2564 45.0998 86.3738 45.0953H87.6503C88.322 45.0893 88.8983 45.0819 89.6654 45.1327C89.7569 45.1356 89.8444 45.0609 89.9027 44.9339L101.003 19.8406C100.535 24.4188 99.2066 36.19 98.2558 44.4543C98.2534 44.4946 98.2511 44.535 98.2511 44.5738C98.2511 44.7008 98.2731 44.8249 98.3141 44.9235C98.3717 45.058 98.456 45.1327 98.5491 45.1327L100.794 45.0953C100.88 45.0953 100.961 45.0266 101.016 44.9011C101.016 44.9011 110.973 22.8813 112.247 20.0677C111.716 24.6638 110.262 36.2737 109.226 44.4423C109.218 44.4872 109.215 44.526 109.215 44.5723C109.215 44.6934 109.237 44.8174 109.28 44.9175C109.337 45.0535 109.421 45.1327 109.513 45.1327H112.169C112.304 45.1327 112.425 44.9578 112.457 44.7038L113.607 35.8867L113.767 34.6465C113.772 35.0006 113.775 35.28 113.775 35.28C113.769 36.2199 113.81 37.1731 113.903 38.1249C114.238 41.6796 115.909 44.9952 117.702 45.6706C119.269 46.207 120.947 45.4554 122.601 43.5249L122.516 44.3721C122.512 44.417 122.509 44.4618 122.509 44.5096C122.509 44.6829 122.541 44.8532 122.599 44.9877C122.676 45.1566 122.788 45.2507 122.904 45.2507L124.934 45.2612C125.128 45.2612 125.29 45.0071 125.325 44.6515L127.159 26.2327L127.598 21.2691C127.599 21.0868 127.57 20.912 127.506 20.773ZM0 44.7741V44.3109C0.0126144 44.263 0.0275939 44.2167 0.0473039 44.1764L16.4492 8.43403C16.5059 8.3145 16.5863 8.24278 16.6738 8.24278H19.3213C19.408 8.24278 19.4916 8.31898 19.5499 8.44897C19.5917 8.54759 19.6162 8.67908 19.6162 8.80011C19.6162 8.83597 19.6122 8.87781 19.6083 8.91516C19.6083 8.91516 17.5545 28.0975 17.1721 31.567C18.4675 28.8027 28.0142 8.43403 28.0142 8.43403C28.0694 8.31151 28.1514 8.24427 28.2334 8.24427H30.7263C30.8177 8.24427 30.9045 8.32346 30.9604 8.45794C31.0156 8.59242 31.0361 8.77172 31.0125 8.93608L28.3966 29.0179C28.4186 28.9432 28.4368 28.87 28.4573 28.8012C29.7021 24.2231 32.0681 21.0046 34.6281 20.4129C34.6359 20.4084 34.6462 20.4084 34.6564 20.4084C36.972 20.1873 38.7593 21.8428 39.8307 25.1898L39.848 25.2436C40.2328 26.7049 40.5198 28.6698 40.571 30.6914C41.0086 28.2813 41.7851 26.0505 42.8652 24.1693C44.6943 20.9508 46.9255 19.6852 49.1496 20.6071C49.1724 20.6161 49.2 20.6355 49.2229 20.652L49.4295 20.8208C49.923 21.2227 50.4599 21.668 50.914 22.436C51.1545 20.2978 51.8601 13.9521 51.8601 13.9521C51.8995 13.6084 52.0604 13.3604 52.2464 13.3604H54.2923C54.4106 13.3604 54.5209 13.4605 54.5966 13.6263C54.6715 13.7967 54.7031 14.0238 54.6834 14.2419L51.6993 44.6515C51.6638 45.0071 51.5014 45.2612 51.3106 45.2612L49.2805 45.2507C49.1622 45.2507 49.0487 45.1566 48.9738 44.9877C48.9146 44.8532 48.8823 44.6829 48.8823 44.5096C48.8823 44.4633 48.8855 44.4155 48.8902 44.3721C48.8902 44.3721 48.9414 43.8626 48.9738 43.5249C47.3197 45.4554 45.6459 46.207 44.077 45.6691C42.2818 44.9952 40.6128 41.6796 40.2754 38.1249C40.1839 37.1731 40.1429 36.2199 40.1476 35.28C40.0767 35.3996 39.9829 35.4743 39.8827 35.4743L30.4614 35.4817C30.4527 35.5564 30.4456 35.6207 30.4456 35.6984C30.4456 35.9703 30.4961 36.3259 30.5607 36.7294L30.6009 36.9909C31.0479 39.0678 32.1209 40.3707 33.3382 40.3154C34.5484 40.2631 35.6695 39.1679 36.6661 37.0626C36.7394 36.9027 36.8474 36.8131 36.9586 36.8131H39.0589C39.1945 36.8131 39.3222 36.9445 39.3924 37.1627C39.4657 37.3793 39.4751 37.6513 39.4184 37.8829C38.2255 42.6224 35.5521 45.805 32.7462 45.805C30.7933 45.6616 29.155 43.8656 28.2428 40.8623C27.7887 39.262 27.5735 37.2762 27.5861 35.2412L26.3538 44.7038C26.3207 44.9578 26.2001 45.1327 26.0645 45.1327H23.4076C23.3177 45.1327 23.2318 45.0535 23.1774 44.9175C23.1332 44.8174 23.1111 44.6934 23.1111 44.5738C23.1111 44.526 23.1151 44.4857 23.119 44.4423C24.1573 36.2737 25.6119 24.6639 26.1402 20.0692L14.911 44.9026C14.8558 45.0266 14.7754 45.0953 14.6894 45.0953L12.4449 45.1327C12.3542 45.1327 12.2706 45.058 12.2131 44.9235C12.1705 44.8249 12.1469 44.6993 12.1469 44.5723C12.1469 44.535 12.1469 44.4946 12.1524 44.4543C13.1024 36.19 14.4309 24.4173 14.8984 19.8406L3.79772 44.9339C3.74016 45.0609 3.65265 45.1356 3.5612 45.1327C2.79487 45.0819 2.21777 45.0878 1.54605 45.0953H0.268056C0.153738 45.0998 0.0488807 44.9728 0 44.7741ZM123.855 33.4721C123.395 36.5082 121.876 39.3995 120.39 40.0808C119.253 40.3647 118.421 40.163 117.844 39.4533C117.231 38.6584 116.924 37.2792 116.686 36.0361C116.647 35.5908 116.623 35.1426 116.623 34.7048C116.623 31.939 117.407 29.2734 118.848 27.2309C119.673 26.1371 120.8 25.7217 121.786 26.1491C122.341 26.3926 123.105 27.0172 123.579 28.6444C123.843 29.5274 123.986 30.6466 123.986 31.7373C123.986 32.341 123.942 32.9327 123.855 33.4721ZM31.3475 29.9831L37.4521 29.8741C37.4048 29.0478 37.1746 28.2753 36.6921 27.3608C36.1599 26.4987 35.4306 26.0938 34.3939 26.0833C33.2712 26.3792 31.9601 27.7747 31.3475 29.9831ZM50.2297 33.4721C50.3164 32.9327 50.3582 32.341 50.3582 31.7388C50.3582 30.6466 50.2179 29.5274 49.953 28.6458C49.4744 27.0172 48.7152 26.3926 48.157 26.1506C47.1731 25.7217 46.0464 26.1356 45.2178 27.2309C43.7806 29.2734 42.9961 31.9375 42.9961 34.7048C42.9961 35.1426 43.0182 35.5908 43.0592 36.0361C43.2965 37.2792 43.6032 38.6584 44.215 39.4533C44.7953 40.163 45.6294 40.3647 46.7623 40.0808C48.2477 39.3995 49.7669 36.5082 50.2297 33.4721ZM55.2029 13.9521L54.7259 18.841C54.7038 19.0592 54.7362 19.2878 54.8111 19.4641C54.886 19.6314 54.9971 19.7301 55.117 19.7301H57.4191C57.6083 19.7301 57.7739 19.476 57.8078 19.1174L58.2406 14.2718C58.2587 14.0551 58.228 13.828 58.1547 13.6592C58.0798 13.4903 57.9686 13.3902 57.8551 13.3887L55.5916 13.3514C55.4024 13.3484 55.2392 13.6039 55.2029 13.9521ZM66.4242 33.4721C65.963 36.5082 64.4422 39.3995 62.9584 40.0808C61.8231 40.3647 60.9905 40.163 60.4103 39.4533C59.7985 38.6584 59.4926 37.2792 59.2553 36.0361C59.2143 35.5908 59.1922 35.1426 59.1922 34.7048C59.1922 31.939 59.9751 29.2734 61.4155 27.2309C62.2433 26.1371 63.3668 25.7217 64.3539 26.1491C64.9105 26.3926 65.6713 27.0172 66.1475 28.6444C66.4132 29.5274 66.5551 30.6466 66.5551 31.7373C66.5551 32.341 66.5101 32.9327 66.4242 33.4721ZM142.092 43.0961L138.299 31.5849C138.607 30.8991 141.834 23.4655 142.489 22.0087L142.199 24.891C142.177 25.1106 142.209 25.3362 142.285 25.5051C142.359 25.6739 142.469 25.7755 142.588 25.7755H143.593C143.479 27.0904 142.427 39.2037 142.092 43.0961ZM131.052 21.9265L131.097 21.3886C131.12 21.1719 131.087 20.9463 131.015 20.776C130.938 20.6071 130.829 20.507 130.712 20.507H128.664C128.474 20.5025 128.309 20.7551 128.273 21.1107L128.215 21.6964L126.026 44.3094C126.007 44.5275 126.042 44.7561 126.119 44.925C126.197 45.0923 126.314 45.1924 126.432 45.1865L127.443 45.1581H128.393C128.582 45.1581 128.74 44.9085 128.777 44.5634L130.279 30.53C130.775 26.9739 132.021 25.9145 133.124 25.6067C133.183 25.5917 133.405 25.5977 133.452 25.5409C132.697 34.0488 131.803 44.1226 131.786 44.2929C131.767 44.5051 131.801 44.7262 131.876 44.8951C131.95 45.0609 132.062 45.1581 132.174 45.1581H134.379C134.552 45.1581 134.706 44.9489 134.755 44.6351C134.826 44.2257 135.353 38.4432 135.669 34.9692C136.486 37.3106 139.095 44.8159 139.095 44.8159C139.168 45.0251 139.292 45.1506 139.424 45.1506L142.06 45.1581C142.108 45.1581 142.151 45.1371 142.196 45.1103C142.252 45.1581 142.315 45.1909 142.376 45.1865L144.602 45.1581C144.794 45.1551 144.956 44.8951 144.987 44.5454L146.706 25.7845L149.26 25.777C149.452 25.777 149.615 25.5155 149.649 25.1599L149.993 21.3737C149.998 21.3318 150 21.293 150 21.2467C150 21.0763 149.967 20.906 149.909 20.7715C149.834 20.6042 149.724 20.507 149.605 20.507H147.088C147.211 19.1682 147.658 14.2315 147.658 14.2315C147.662 14.1896 147.664 14.1478 147.664 14.106C147.664 13.9281 147.632 13.7578 147.572 13.6263C147.498 13.4545 147.386 13.3618 147.271 13.3618H145.058C144.868 13.3618 144.704 13.6218 144.67 13.9775C144.67 13.9775 144.178 19.4955 144.087 20.507C143.887 20.519 143.681 20.5265 143.681 20.5265L143.336 20.5309L142.969 20.519C142.829 20.513 142.703 20.649 142.63 20.8626C142.559 20.6594 142.439 20.5265 142.305 20.5265L140.28 20.519H139.688C139.577 20.519 139.473 20.6071 139.397 20.7581C139.397 20.7581 137.36 25.1719 136.278 27.3877C136.594 23.8764 137.467 14.2434 137.467 14.2434C137.47 14.1986 137.472 14.1582 137.472 14.1134C137.472 13.9401 137.438 13.7698 137.378 13.6383C137.304 13.4664 137.194 13.3708 137.078 13.3708L134.875 13.3618C134.681 13.3589 134.514 13.6203 134.484 13.976C134.432 14.5512 134.204 17.1137 133.897 20.5309L133.887 20.5011C133.809 20.3292 133.697 20.2396 133.577 20.247C132.639 20.2993 131.791 21.0255 131.052 21.9265Z" fill="white"/>
<path d="M84.2307 27C84.2307 29.2209 82.4226 31.0213 80.1923 31.0213C77.9619 31.0213 76.1538 29.2209 76.1538 27C76.1538 24.7791 77.9619 22.9787 80.1923 22.9787C82.4226 22.9787 84.2307 24.7791 84.2307 27Z" fill="white"/>
</svg>
