<svg width="150" height="54" viewBox="0 0 150 54" fill="none" xmlns="http://www.w3.org/2000/svg">
<path fill-rule="evenodd" clip-rule="evenodd" d="M13.7192 17.0548V8.76776H30.838L35.5124 30.9363L40.2463 8.76776H45.4672L37.8797 44.5072H33.2053L27.3171 17.0548H22.8855V44.5072H17.8478V17.0548H13.7192Z" fill="white"/>
<path fill-rule="evenodd" clip-rule="evenodd" d="M5.28129 25.1352V15.9164C10.9275 15.2939 10.8061 25.6524 5.28129 25.1352ZM9.83506 44.5072H15.6019L10.745 30.2125C16.7546 26.6894 15.1156 8.55978 8.43878 8.76772H0V44.5072H5.28129V31.2482L9.83506 44.5072ZM105.2 8.76639H111.149L116.794 44.5072H112.605L111.634 38.1889H104.594L103.621 44.5072H99.5543L105.2 8.76772L105.2 8.76639ZM110.602 31.6614H105.625L108.114 15.8124L110.602 31.6614Z" fill="white"/>
<path fill-rule="evenodd" clip-rule="evenodd" d="M124.564 32.0759V24.4114H133.852V36.8413C132.395 40.0537 131.424 42.5397 129.481 44.094C128.207 45.1283 126.142 45.9575 124.261 45.9575C121.954 45.9575 120.072 45.2323 118.614 43.7834C117.158 42.2278 116.249 40.2604 115.458 37.3585C114.67 34.3553 114.487 30.9363 114.487 27.1026C114.487 23.0638 114.791 19.4381 115.701 16.5375C116.551 13.533 117.826 11.3576 119.526 9.80207C120.861 8.55975 122.257 8.04256 124.503 8.04256C126.688 8.04256 128.267 8.35314 129.36 9.07827C130.453 9.80207 131.302 10.9431 132.031 12.4973C132.699 14.0516 133.244 16.019 133.609 18.4024L128.51 20.3698C128.267 18.9196 127.903 17.8838 127.296 17.1574C126.749 16.4349 126.021 15.9164 125.171 15.7084C123.412 15.2939 122.015 16.9508 121.226 18.609C120.437 20.3685 120.072 23.0624 120.072 26.8974C120.072 30.8336 120.437 34.2513 121.226 36.0122C122.015 37.6717 123.168 38.6035 124.564 38.6035C125.232 38.6035 125.9 38.3955 126.506 37.9796C127.113 37.6717 127.782 37.0492 128.571 36.1162V32.0773H124.564V32.0759ZM141.319 16.8481H138.587V36.5307H141.319C146.417 36.5307 146.538 16.8481 141.319 16.8481ZM140.53 8.76769H133.852V44.6112H140.53C153.035 44.6112 153.278 8.76769 140.53 8.76769Z" fill="white"/>
<path fill-rule="evenodd" clip-rule="evenodd" d="M40.2471 44.5071H103.075V8.76631H40.2455V44.5071H40.2471ZM41.4609 42.641H101.922V10.7364H41.4617V42.6436L41.4609 42.641Z" fill="white"/>
<path fill-rule="evenodd" clip-rule="evenodd" d="M55.3016 35.8069H44.739V17.3653H54.9985V20.991H47.5927V24.7206H54.4511V27.3106H47.5927V32.6984H55.3016V35.8069ZM83.9532 35.8069H80.7354L80.6759 30.8336C80.6759 28.2437 78.7941 28.3463 77.5795 28.3463H75.5763V35.8069H72.2379V17.364H79.7651C84.6823 17.364 85.8358 24.2021 82.1928 26.6894C83.1035 27.2053 83.8921 28.7608 83.8921 30.7283L83.9532 35.8056V35.8069ZM75.4549 25.5484H78.6116C79.4621 25.5484 80.1293 25.3405 80.4942 25.0299C80.8576 24.6167 81.1003 23.9942 81.1003 23.1651C81.1003 21.6121 80.311 20.783 78.7941 20.783H75.4549V25.5484ZM92.634 17.0547C93.605 17.0547 94.5158 17.2627 95.3051 17.7799C96.1548 18.1958 96.8831 18.8156 97.49 19.646C98.0977 20.4725 98.5229 21.5095 98.8863 22.6492C99.1901 23.8915 99.3718 25.1352 99.3718 26.5868C99.3718 27.9331 99.2512 29.2794 98.8863 30.4191C98.5832 31.5601 98.0977 32.5945 97.49 33.4236C96.8831 34.2513 96.1548 34.9765 95.3662 35.3924C94.5158 35.8056 93.6058 36.1161 92.634 36.1161C91.6629 36.1161 90.6918 35.8069 89.9025 35.3924C89.0528 34.9765 88.3245 34.2513 87.7787 33.4236C87.171 32.5945 86.6847 31.6614 86.3824 30.4191C86.0175 29.2794 85.835 28.0357 85.835 26.5868C85.835 25.1352 86.0175 23.7875 86.3824 22.6492C86.6847 21.5095 87.171 20.4738 87.7787 19.646C88.3856 18.8156 89.1139 18.1958 89.9025 17.7799C90.7529 17.2627 91.6629 17.0547 92.634 17.0547ZM92.634 32.8011C93.1806 32.8011 93.7272 32.6984 94.273 32.3878C94.7585 32.0759 95.1838 31.6614 95.5479 31.1442C95.912 30.627 96.1548 30.0045 96.3976 29.1767C96.58 28.4516 96.7014 27.5185 96.7014 26.5868C96.7014 25.5497 96.58 24.7206 96.3976 23.8915C96.1548 23.1664 95.912 22.5452 95.5479 22.028C95.1838 21.5082 94.7585 21.095 94.273 20.7844C93.7272 20.4738 93.2409 20.3698 92.634 20.3698C92.0873 20.3698 91.5415 20.4738 90.9957 20.783C90.5102 21.095 90.0849 21.5095 89.7208 22.028C89.3566 22.5452 89.0528 23.1664 88.8703 23.9955C88.6887 24.7206 88.5673 25.5497 88.5673 26.5868C88.5673 27.5185 88.6887 28.4516 88.8703 29.1767C89.0528 30.0045 89.3559 30.627 89.7208 31.1442C90.0849 31.6614 90.5094 32.0773 90.9957 32.3878C91.4812 32.6984 92.027 32.8011 92.634 32.8011ZM58.398 17.3653H61.1295V30.4191C61.2501 34.0447 66.5925 33.9407 66.4703 30.4191V17.364H69.4453L69.3842 30.7283C69.4453 37.5664 58.4575 37.5664 58.3972 30.7283L58.398 17.3653Z" fill="white"/>
</svg>
