<svg width="150" height="54" viewBox="0 0 150 54" fill="none" xmlns="http://www.w3.org/2000/svg">
<g clip-path="url(#clip0_941_2158)">
<path fill-rule="evenodd" clip-rule="evenodd" d="M77.2801 45.809C82.5206 45.809 86.012 40.5416 86.012 31.6531V8.91367H80.2798V31.2958C80.2798 35.4345 79.3207 37.4842 77.3106 37.4842C75.3705 37.4842 74.5399 35.3859 74.5399 31.2958V8.91367H68.7773V31.6531C68.7849 40.7387 71.9755 45.809 77.2785 45.809H77.2801ZM94.5216 25.6736H93.4688V17.0414H94.9812C97.522 17.0414 98.7413 18.2699 98.7413 21.2787C98.7328 24.545 97.3556 25.6736 94.5216 25.6736ZM101.369 10.9029C99.7857 9.17119 97.9099 8.91367 95.44 8.91367H87.6664V45.244H93.3969V33.5438H95.0446C97.4823 33.5438 99.3269 33.285 100.816 31.9107C103.15 29.7138 104.536 25.8339 104.536 21.1302C104.536 16.575 103.452 13.1496 101.369 10.9029ZM136.233 25.0101L144.965 45.2453H150V8.91367H144.277V29.0989L135.671 8.91367H130.502V45.2453H136.233V25.0101ZM55.2723 36.9192C52.042 36.9192 49.1125 32.5243 49.1125 26.8023C49.1125 21.4863 51.8443 17.2516 55.3433 17.2516C58.6369 17.2516 61.3763 21.4863 61.3763 26.8036C61.3678 32.7213 58.6369 36.9205 55.2723 36.9205V36.9192ZM63.6712 13.6161C61.3991 10.1422 58.4384 8.25147 55.3036 8.25147C51.9786 8.25147 49.0737 10.0436 46.7695 13.5675C44.4661 17.09 43.2071 21.6952 43.2071 26.7037C43.2071 32.0696 44.3318 36.5631 46.5329 40.1987C48.8354 43.98 51.8046 45.9193 55.2639 45.9193C58.5254 45.9193 61.6213 43.9314 63.8926 40.2486C66.1022 36.7234 67.2893 32.0696 67.2893 26.8653C67.2978 21.8909 66.0464 17.2385 63.6712 13.6161ZM117.352 36.9192C114.123 36.9192 111.193 32.5243 111.193 26.8023C111.193 21.4863 113.933 17.2516 117.423 17.2516C120.717 17.2516 123.456 21.4863 123.456 26.8036C123.448 32.7213 120.709 36.9205 117.352 36.9205V36.9192ZM125.751 13.6161C123.48 10.1422 120.511 8.25147 117.385 8.25147C114.051 8.25147 111.155 10.0436 108.85 13.5675C106.546 17.09 105.288 21.6952 105.288 26.7037C105.288 32.0696 106.412 36.5631 108.612 40.1987C110.925 43.98 113.885 45.9193 117.345 45.9193C120.606 45.9193 123.701 43.9314 125.974 40.2486C128.182 36.7234 129.37 32.0696 129.37 26.8653C129.379 21.8909 128.126 17.2385 125.751 13.6161ZM3.31652 40.1855C5.61988 43.9669 8.55781 45.9575 12.0171 45.9575C16.0061 45.9575 19.7595 42.8869 21.9994 37.8284C23.3531 34.7579 24.0104 31.2839 24.0104 27.1964C24.0104 26.4344 23.9783 25.6119 23.9471 24.7881H10.6001V32.0447H17.2896C16.1329 35.2138 14.1937 36.956 12.0171 36.956C8.78679 36.956 5.88942 32.5124 5.88942 26.7287C5.88942 21.5112 8.58907 17.1767 12.0171 17.1767C13.8616 17.1767 15.3733 18.3566 16.83 20.7019H23.3531C21.4773 12.9289 17.0919 8.17657 12.0881 8.17657C8.76313 8.17657 5.86492 10.0186 3.55395 13.5425C1.25059 17.0677 4.7614e-05 21.6715 4.7614e-05 26.6801C-0.00840199 32.0578 1.10779 36.5513 3.31652 40.1868V40.1855ZM32.3071 25.6736H31.1901V17.0414H32.7735C35.3067 17.0414 36.526 18.2699 36.526 21.2787C36.526 24.545 35.1403 25.6736 32.3071 25.6736ZM37.0169 32.7699C40.3418 31.3339 42.3216 26.9494 42.3216 21.0698C42.3216 16.5763 41.2358 13.1496 39.1547 10.9029C37.5712 9.17119 35.6954 8.91367 33.2247 8.91367H25.4511V45.244H31.1825V33.5438L35.6633 45.244H42.7483L37.0169 32.7699Z" fill="white"/>
</g>
<defs>
<clipPath id="clip0_941_2158">
<rect width="150" height="54" fill="white"/>
</clipPath>
</defs>
</svg>
